HIERARCHY
ROOT Hips
{
	OFFSET 0.0000 0.0000 0.0000
	CHANNELS 6 Xposition Yposition Zposition Zrotation Xrotation Yrotation
	JOINT Ab
	{
		OFFSET -0.0000 8.1305 -0.0000
		CHANNELS 3 Zrotation Xrotation Yrotation
		JOINT Chest
		{
			OFFSET -0.0000 26.2902 -0.0000
			CHANNELS 3 Zrotation Xrotation Yrotation
			JOINT Neck
			{
				OFFSET -0.0000 26.2902 0.0000
				CHANNELS 3 Zrotation Xrotation Yrotation
				JOINT Head
				{
					OFFSET -0.0000 10.8167 0.0000
					CHANNELS 3 Zrotation Xrotation Yrotation
					End Site
					{
						OFFSET -0.0000 16.7167 0.0000
					}
				}
			}
			JOINT LeftCollar
			{
				OFFSET -0.0000 26.2902 0.0000
				CHANNELS 3 Zrotation Xrotation Yrotation
				JOINT LeftShoulder
				{
					OFFSET 19.6667 -0.0000 0.0000
					CHANNELS 3 Zrotation Xrotation Yrotation
					JOINT LeftElbow
					{
						OFFSET 27.2190 0.0000 0.0000
						CHANNELS 3 Zrotation Xrotation Yrotation
						JOINT LeftWrist
						{
							OFFSET 30.7431 0.0000 0.0000
							CHANNELS 3 Zrotation Xrotation Yrotation
							End Site
							{
								OFFSET 0.0000 -14.7500 0.0000
							}
						}
					}
				}
			}
			JOINT RightCollar
			{
				OFFSET -0.0000 26.2902 0.0000
				CHANNELS 3 Zrotation Xrotation Yrotation
				JOINT RightShoulder
				{
					OFFSET -19.6667 0.0000 0.0000
					CHANNELS 3 Zrotation Xrotation Yrotation
					JOINT RightElbow
					{
						OFFSET -27.2190 0.0000 0.0000
						CHANNELS 3 Zrotation Xrotation Yrotation
						JOINT RightWrist
						{
							OFFSET -30.7431 0.0000 0.0000
							CHANNELS 3 Zrotation Xrotation Yrotation
							End Site
							{
								OFFSET -0.0000 -14.7500 0.0000
							}
						}
					}
				}
			}
		}
	}
	JOINT LeftHip
	{
		OFFSET 11.8000 0.0000 0.0000
		CHANNELS 3 Zrotation Xrotation Yrotation
		JOINT LeftKnee
		{
			OFFSET -0.0000 -39.7832 0.0000
			CHANNELS 3 Zrotation Xrotation Yrotation
			JOINT LeftAnkle
			{
				OFFSET -0.0000 -41.7317 0.0000
				CHANNELS 3 Zrotation Xrotation Yrotation
				End Site
				{
					OFFSET -0.0000 -4.9167 16.7167
				}
			}
		}
	}
	JOINT RightHip
	{
		OFFSET -11.8000 0.0000 0.0000
		CHANNELS 3 Zrotation Xrotation Yrotation
		JOINT RightKnee
		{
			OFFSET -0.0000 -39.7832 0.0000
			CHANNELS 3 Zrotation Xrotation Yrotation
			JOINT RightAnkle
			{
				OFFSET -0.0000 -41.7317 0.0000
				CHANNELS 3 Zrotation Xrotation Yrotation
				End Site
				{
					OFFSET -0.0000 -4.9167 16.7167
				}
			}
		}
	}
}
MOTION
Frames: 21
Frame Time: 0.010000
-11.6309 92.9426 103.6559 355.7420 344.5070 202.7519 358.0182 350.0472 0.2900 358.4985 13.1073 0.6362 344.2881 343.1487 349.1030 10.1657 9.3499 350.6050 337.2790 357.6470 11.6739 326.2335 41.3578 353.4381 2.3164 359.0772 313.7821 83.8156 358.0083 331.7567 27.3919 356.0937 344.0460 40.7190 41.0773 5.9241 337.6131 350.4408 46.5591 269.0856 354.7160 3.8657 346.1945 346.3199 352.8462 358.4540 5.9919 1.1976 343.7330 349.5698 9.7021 350.2642 347.7954 1.4960 14.4919 27.8158 12.7871 344.7660 336.2410 309.0181 
-11.5878 92.6614 102.5082 355.7585 345.1666 202.7959 357.8264 350.0384 0.3269 358.3590 13.1865 0.7045 344.2763 343.6036 349.1016 10.6074 9.4602 350.5014 337.2437 357.6682 11.6612 325.9164 40.7656 354.1580 1.9937 359.2567 313.8968 83.8717 357.9444 331.1911 27.3277 356.1121 343.9913 40.7780 41.2526 5.9192 337.9521 350.5520 46.6952 269.2327 354.7093 4.0757 346.5381 346.6864 352.8490 358.7063 5.5037 359.1278 343.8794 350.3573 11.6204 350.4953 348.0774 0.8934 15.2168 30.0346 13.2528 345.0925 335.0785 308.7698 
-11.5313 92.3358 101.4318 355.8336 345.6407 202.8176 357.6803 349.9523 0.3186 358.0568 13.1030 0.7449 344.5817 344.0638 349.1570 10.8146 9.6555 350.4084 337.3632 357.6579 11.6386 325.4580 40.2171 354.8889 1.8119 359.3168 314.4826 87.0409 356.0048 333.3387 27.3764 356.0776 344.0245 40.8970 41.4062 5.7163 338.3139 350.6799 46.8379 269.3423 354.7501 4.5806 346.9568 346.8144 352.6942 358.6303 6.5693 359.0342 344.9594 351.1291 12.9131 350.5146 347.8534 0.5411 16.5705 32.6202 12.4549 346.0224 333.8687 309.3007 
-11.5768 92.0214 100.2848 355.6390 346.3594 202.7209 357.4977 350.0347 0.3054 357.7285 13.1680 0.7892 344.5657 344.7050 349.2096 11.3081 9.4820 350.3599 337.2993 357.6161 11.7178 325.1879 39.7187 355.4639 1.6967 359.3444 314.7880 88.0746 355.7096 333.2133 27.4779 356.0778 344.0990 40.7701 41.5749 5.6471 338.7866 350.8917 46.9378 269.4256 354.6284 5.0530 347.2758 347.4569 352.5785 358.1240 9.0582 0.6651 346.0071 350.0567 12.0213 350.1399 347.8298 359.5369 17.9582 35.7434 12.3402 346.9770 333.1240 309.9587 
-11.6565 91.7469 99.1901 355.2396 346.9054 202.5567 357.1980 350.0928 0.2449 357.1342 13.1943 0.8174 344.9006 345.2928 349.3732 11.5958 9.2726 350.3984 337.2959 357.6154 11.8725 324.9728 39.2294 355.9478 1.6528 359.3199 314.9720 88.3076 355.6317 333.1300 27.6817 356.0784 344.3113 40.8336 41.7249 5.4291 339.1478 351.0210 46.9744 269.5944 354.5846 5.5303 347.3459 348.1779 352.5912 358.0086 10.0354 359.0306 348.7916 350.4051 13.8845 349.2088 347.2582 358.8454 20.3044 39.5532 11.5011 348.4207 332.5660 310.6879 
-11.7431 91.5329 98.1112 354.6278 347.0788 202.0832 356.5509 349.8440 0.2537 356.6368 13.2815 0.9517 344.8409 345.7796 349.5297 12.1844 8.9269 350.4960 337.0671 357.5316 12.2224 324.9764 38.7265 356.2264 1.7419 359.2794 315.2154 88.7072 355.4242 333.5397 27.9129 356.0821 344.4998 40.6678 42.2053 5.5314 339.3231 351.0733 46.7574 269.7243 354.6380 6.2834 347.1460 349.0307 352.9572 357.9306 10.3999 357.9767 349.3739 349.8328 15.0398 347.8948 346.2440 357.5182 22.1783 43.5216 10.5128 350.4756 332.7689 312.4606 
-11.8285 91.3328 97.1168 354.0162 347.2344 201.7372 356.0117 349.6431 0.1792 355.9708 13.5644 1.0266 345.0258 345.8029 349.5831 12.4975 8.7965 350.4944 336.9318 357.4613 12.6308 325.2629 38.4476 355.8897 1.9353 359.1765 315.5417 88.7584 355.4341 333.7153 28.0453 356.0914 344.5307 40.7737 42.4842 5.7928 339.3626 351.0502 46.4847 269.8787 354.6656 6.7353 346.9721 350.0516 352.7142 357.1660 10.4965 359.8756 351.2569 350.1617 15.2255 346.2438 345.0262 356.9560 25.6964 47.2190 7.5473 352.6884 333.7471 314.4938 
-11.9035 91.1551 96.1555 353.5122 347.3038 201.3451 355.5618 349.3287 0.2079 355.4140 13.8947 1.1848 344.9214 345.8941 349.5783 12.9554 8.4611 350.4947 336.5684 357.3335 12.9518 325.6259 38.0153 355.6257 2.0894 359.1133 315.7735 88.9068 355.4872 333.9313 28.2312 356.0689 344.4081 40.3257 42.9205 6.4033 339.4348 351.1249 46.1949 269.7761 354.6746 6.9024 346.8613 350.9878 352.2720 356.8332 10.1623 0.7655 350.7341 349.8424 15.0531 344.5152 343.4484 355.1779 28.7517 51.2229 4.7626 354.3599 335.5345 316.6608 
-11.9630 90.9987 95.2384 353.1531 347.3519 200.9916 355.2745 349.0474 0.2770 354.8711 14.1416 1.3691 345.1248 345.6891 349.5339 12.6852 8.2931 350.4781 336.1742 357.2420 13.2011 326.1033 37.7508 355.1846 2.2207 359.0642 316.1252 89.0354 355.4316 333.9549 27.9948 356.0991 344.4378 41.1429 43.2276 6.2734 339.0445 350.9332 45.7835 269.8866 354.6562 7.1744 346.8840 351.8648 351.9338 356.4757 9.8026 1.6444 351.5283 349.7454 15.0344 342.8549 341.8901 353.9202 32.3853 54.4740 0.9996 355.7914 338.4701 318.7705 
-12.0328 90.8606 94.2915 352.8704 347.5464 200.6260 355.1752 348.8974 0.4339 354.3388 14.3063 1.6195 344.6151 345.0886 349.5283 13.2227 9.1655 350.5038 335.6786 357.1612 13.1720 326.5017 37.2562 355.0782 2.2656 359.0760 316.4764 88.7125 355.4507 333.5098 27.6629 356.1625 344.3739 42.0615 43.6506 6.0297 338.6066 350.7789 45.3400 269.7815 354.6234 7.1829 347.0557 352.9764 352.0266 356.2471 9.2902 1.6570 352.3240 349.6761 15.1449 341.3351 340.5652 352.6996 36.1663 57.1896 356.9043 355.9970 341.0107 320.0602 
-12.1017 90.7318 93.3126 352.6618 347.8890 200.3249 355.1073 348.9682 0.6374 354.1087 14.1318 1.8510 343.9325 345.7019 349.5010 13.6813 8.7745 350.4919 334.9468 357.0738 12.8234 327.0109 36.7553 355.3104 1.9246 359.3006 316.6597 89.2284 355.4951 333.4517 27.2035 356.2328 344.3126 43.2195 44.1192 5.3471 338.0296 350.5804 44.8639 269.5761 354.6419 6.9107 347.3477 354.2274 352.5464 356.1111 8.6924 0.9296 353.5741 350.1684 16.0432 340.0091 339.5317 351.4574 39.5947 59.4021 354.0164 356.2764 341.0419 319.9411 
-12.1801 90.6188 92.3315 352.4782 348.2827 200.0541 355.2163 349.0699 0.8134 353.6210 14.1234 2.0691 343.7370 345.9336 349.4729 13.6773 8.5037 350.4734 334.5163 357.0627 12.6265 327.2478 36.6210 355.2454 2.1451 359.1481 317.0126 89.0696 355.5014 333.2280 26.9172 356.2482 344.2567 44.2767 44.4674 4.6533 337.6016 350.4893 44.5903 269.2335 354.8264 6.4648 347.6233 355.5432 353.2192 356.0464 8.1915 0.5524 353.6890 350.0446 15.9839 338.8238 338.6080 350.1191 42.3535 61.3055 351.8696 356.0553 339.9608 319.1696 
-12.2471 90.5373 91.3977 352.3368 348.5979 199.8577 355.3135 349.2090 0.9846 353.2870 14.0314 2.2576 343.2837 346.1162 349.4148 13.7956 8.2369 350.4728 334.1088 357.0608 12.3895 327.2554 36.4967 355.1600 2.4751 358.9674 317.6874 88.2853 355.4251 332.2253 26.7236 356.2524 344.2039 44.9464 44.5336 3.9950 337.5219 350.5762 44.5724 268.8422 355.0818 5.9815 347.9004 356.7536 353.7406 355.9525 7.6381 0.6585 354.5360 350.3009 15.7976 337.7666 337.6780 348.4161 43.6432 63.1066 351.9327 355.1206 339.9096 317.7017 
-12.3181 90.4832 90.4835 352.2648 348.8479 199.7990 355.4552 349.3003 1.1180 352.9838 13.9814 2.4081 343.0034 346.2241 349.3467 13.7136 7.9688 350.4548 333.7424 357.0763 12.0993 327.2642 36.5015 355.0061 2.7582 358.8473 318.0401 88.5891 355.5975 332.3360 26.6757 356.2249 344.0870 45.2609 44.0932 3.4331 337.9430 350.8635 44.9144 268.4824 355.3165 5.7847 348.1815 357.8795 354.1095 355.9004 7.0919 0.6843 353.9471 349.8637 15.1232 336.6585 336.7927 346.8947 44.7690 64.2306 351.0711 354.9499 340.0093 317.2702 
-12.3474 90.4507 89.6051 352.3766 348.9838 199.9507 355.6781 349.2826 1.1307 352.7807 14.0230 2.4226 342.8500 346.1615 349.2280 13.4604 7.7566 350.3981 333.4266 357.1086 11.8009 327.4113 36.5207 354.7696 2.8717 358.8447 317.9176 89.7516 355.8106 333.5399 26.4124 356.2262 343.8178 45.7293 43.5982 3.1928 338.3758 351.0815 45.0582 268.5391 355.1328 5.5143 348.5898 358.7104 354.3064 355.8573 6.7199 0.8997 353.3374 349.0772 14.3681 335.6240 335.8697 345.5401 45.4664 64.4943 350.2733 354.6950 340.6881 317.0716 
-12.3935 90.4376 88.7802 352.3827 348.9933 200.0123 355.8528 349.2961 1.1632 352.4993 13.9433 2.4704 342.6530 345.9406 349.1765 13.2849 7.6496 350.4394 333.2905 357.1532 11.7263 327.1622 36.8650 354.3619 3.3995 358.5625 318.2171 90.5155 355.7186 334.4564 26.5264 356.1576 343.8937 45.6545 42.4588 2.5923 339.5466 351.6744 45.8631 268.1475 355.3738 6.1293 348.7776 359.3622 354.4024 355.8890 6.4352 1.7834 353.7334 349.4641 13.2520 334.4208 334.7179 344.5074 46.3788 64.6591 349.3420 354.4699 340.5303 316.9627 
-12.4185 90.4312 87.9843 352.4492 348.9299 200.1360 356.0013 349.3070 1.1291 352.3537 13.8019 2.4262 342.4465 345.8086 349.1164 13.1431 7.5079 350.4511 333.2954 357.1993 11.7107 326.7555 37.4432 353.8440 4.0621 358.2526 318.5147 91.0918 355.6899 335.4902 26.4049 356.1723 343.6374 45.5820 41.6984 2.4749 340.6113 352.0982 46.3377 268.5475 355.0601 6.6112 348.9648 359.7713 354.6021 355.9661 6.5253 1.3089 354.3176 349.1322 13.2463 333.2700 333.5008 343.5754 46.7150 64.4968 348.9023 354.0699 339.9145 317.0967 
-12.4555 90.4125 87.1664 352.4733 348.9241 200.2700 356.1141 349.3738 1.0676 352.3141 13.6889 2.3491 342.2443 345.5926 349.0937 12.9492 7.4595 350.5116 333.3008 357.2005 11.7188 326.3104 38.1551 353.3804 4.7833 357.9483 318.6571 90.2892 355.9671 336.1612 26.2558 356.1803 343.6654 45.7705 41.0840 2.0205 341.4080 352.3352 46.6305 268.8845 354.9231 7.7427 349.1145 0.2787 354.7579 356.0862 6.5511 1.0159 354.5399 349.2278 13.0684 332.1377 332.4278 342.8898 46.6470 63.9834 348.8846 353.8749 339.5315 317.3216 
-12.4809 90.3953 86.3227 352.5424 348.9727 200.3402 356.3473 349.4395 1.0487 352.1557 13.6618 2.3258 342.2570 345.2709 349.0840 12.6737 7.4524 350.5650 333.4205 357.1851 11.9559 326.1460 38.9366 352.4458 5.2901 357.7944 318.7775 90.4228 356.1366 336.7703 26.2933 356.1900 343.8431 45.6426 40.1620 1.4506 342.5589 352.8231 47.2229 269.3746 354.7498 8.8772 349.3372 0.8634 354.6843 356.1657 6.4602 1.0753 354.4606 349.0632 13.0216 331.2067 331.4159 342.6504 46.1237 63.0189 349.3379 354.4513 338.8339 317.3748 
-12.4712 90.3323 85.4961 352.7270 348.9984 200.4975 356.6843 349.5241 0.9968 351.9842 13.6261 2.2537 342.5444 345.2204 349.1481 12.4005 6.8719 350.6813 333.6343 357.1901 12.0575 325.9175 39.8280 351.7532 5.8265 357.5957 318.5806 90.3524 356.3371 337.4428 26.0435 356.2164 343.7168 46.1853 40.1912 1.1509 342.7195 352.6544 47.0685 270.3890 354.3631 10.1207 349.6521 1.2244 355.0486 356.3080 6.7044 0.6371 354.2888 348.7463 13.0620 330.4463 330.3965 342.4219 45.0675 61.9119 350.4512 354.5586 338.2433 317.4760 
-12.4525 90.2656 84.6471 352.8903 349.0504 200.6216 356.9134 349.6269 0.9138 352.0015 13.5503 2.1404 342.6717 345.0013 349.1935 12.1706 6.7144 350.7768 333.8290 357.1822 12.1453 325.6023 40.7492 351.2303 6.3392 357.3917 318.1965 90.2558 356.4013 338.0514 26.0914 356.2317 343.9015 46.0013 39.5451 0.5396 343.5820 353.0702 47.5618 270.8053 354.2174 11.0805 349.9721 1.6797 355.1126 356.4013 6.8118 0.6534 354.2715 348.5694 12.9713 329.8030 329.4824 342.5422 43.8331 60.4953 352.1676 354.3215 337.5735 317.0541 
